<?xml version="1.0" encoding="UTF-8" standalone="no"?>
<svg xmlns:rdf="http://www.w3.org/1999/02/22-rdf-syntax-ns#" xmlns="http://www.w3.org/2000/svg" height="221.727" width="864.744" version="1.1" xmlns:cc="http://creativecommons.org/ns#" xmlns:dc="http://purl.org/dc/elements/1.1/">
 <g transform="translate(983.763 -904.356)">
  <path d="m-133.192 1100.64h-18.8846c-9.62143 0-17.4234-7.7976-17.4234-17.424v-129.834c0-19.249-15.6042-34.8531-34.8531-34.8531l-695.78 0.005c-18.6233 0-33.7907 14.6177-34.7639 32.9974h-0.0904v13.8852c0 9.62433-7.80628 17.4219-17.4306 17.4219h-17.1711v9.98898h17.1711c9.62433 0 17.4306 7.80224 17.4306 17.4265v66.8009c0 19.2506 15.5986 34.8548 34.8528 34.8548h116.758 0.033l102.02-0.01h183.091 0.006 178.792c0.0162 0 0.0322-0.01 0.0518-0.01l186.188-0.01v-11.2642h0.003zm-620.45-17.4781v-72.905c0-9.6275 7.80165-17.4297 17.4234-17.4297h78.8822c9.6307 0 17.4373 7.80222 17.4373 17.4251v72.9096c0 9.6257-7.80628 17.4297-17.4373 17.4297l-78.8822 0.01c-9.62432-0.0003-17.4234-7.8058-17.4234-17.4315zm285.112 0v-72.9067c0-9.6243 7.8083-17.4266 17.4263-17.4266h78.8862c9.62461 0 17.4297 7.80227 17.4297 17.4266v72.9064c0 9.6258-7.80483 17.4297-17.4297 17.4297h-78.8862c-9.62143 0-17.4263-7.8037-17.4263-17.4294zm231.443 0.054c0 9.6264-7.80541 17.4269-17.4297 17.4269h-39.2692c5.7125-6.2087 9.20204-14.4879 9.20204-23.5901v-59.3551c0-19.2522-15.6076-34.858-34.8499-34.858h-178.792c-19.2524 0-34.8566 15.6059-34.8566 34.858v59.3551c0 9.1022 3.49128 17.3849 9.20349 23.5935h-55.0242c5.71076-6.2086 9.20146-14.4913 9.20146-23.5935v-59.3569c0-19.2521-15.5972-34.858-34.8493-34.858l-178.793 0.003c-19.2547 0-34.8543 15.6059-34.8543 34.8563v59.357c0 9.1021 3.49012 17.3842 9.20204 23.5934h-47.129c-9.62433 0-17.4306-7.8036-17.4306-17.4268v-72.9672c0-9.6243 7.80628-17.4266 17.4306-17.4266h17.1711v-9.98898h-17.1711c-9.62433 0-17.4306-7.7973-17.4306-17.4219v-18.1894c0-9.62433 7.80802-17.4283 17.4306-17.4283h601.608c9.62751-0.005 17.4329 7.79903 17.4329 17.4234v135.994h-0.003z"/>
 </g>
</svg>
